<svg xmlns="http://www.w3.org/2000/svg" xmlns:xlink="http://www.w3.org/1999/xlink" x="0px" y="0px" viewBox="0 0 154.8 33.4" style="enable-background:new 0 0 154.8 33.4;" xml:space="preserve"><style type="text/css">	.ai-g0{fill:url(#ai-gradient-1);}	.ai-g1{fill:url(#ai-gradient-2);}</style><linearGradient id="ai-gradient-1" gradientUnits="userSpaceOnUse" x1="0" y1="17.6096" x2="41.938" y2="17.6096" gradientTransform="matrix(1 0 0 -1 0 36)">	<stop offset="0" style="stop-color:#E5497C"></stop>	<stop offset="1" style="stop-color:#4F5CEE"></stop></linearGradient><path id="ai-gradient" class="ai-g0" d="M7.4,8.2l-6.6,14c-0.5,1-0.8,2.2-0.8,3.3l0,0c0,4.3,3.5,7.8,7.8,7.8h10.7 c1.9,0,3.4-1.5,3.4-3.4s-1.5-3.4-3.4-3.4l0,0H7.8c-0.6,0-1.1-0.5-1.1-1.1c0-0.2,0-0.3,0.1-0.5l6.6-14.1c0.4-0.7,1.3-1.1,2-0.7 c0.3,0.1,0.6,0.4,0.7,0.7l8,17c2.2,4.6,7.7,6.6,12.4,4.4c3.2-1.5,5.3-4.8,5.3-8.4V13.7c0-1.9-1.5-3.4-3.4-3.4S35,11.8,35,13.7v10.4 c0,1.4-1.1,2.6-2.6,2.6c-1,0-1.9-0.6-2.3-1.5l-8-17c-1.9-4.1-6.9-5.9-11-3.9C9.6,5.1,8.2,6.5,7.4,8.2"></path><linearGradient id="ai-gradient-2" gradientUnits="userSpaceOnUse" x1="34.7919" y1="32.1875" x2="42.3296" y2="32.1875" gradientTransform="matrix(1 0 0 -1 0 36)">	<stop offset="0" style="stop-color:#E5497C"></stop>	<stop offset="1" style="stop-color:#4F5CEE"></stop></linearGradient><path id="ai-gradient-2" class="ai-g1" d="M38.6,0c-1,0-2,0.4-2.7,1.1c-0.2,0.2-0.3,0.4-0.5,0.6c-0.1,0.2-0.3,0.4-0.3,0.7 C35,2.6,34.9,2.8,34.9,3c-0.1,0.5-0.1,1,0,1.5c0,0.2,0.1,0.5,0.2,0.7c0.1,0.2,0.2,0.4,0.3,0.7c0.1,0.2,0.3,0.4,0.5,0.6 c1.5,1.5,3.8,1.5,5.3,0c0.2-0.2,0.3-0.4,0.5-0.6C41.8,5.7,42,5.5,42,5.2c0.1-0.2,0.2-0.5,0.2-0.7c0.1-0.5,0.1-1,0-1.5 c0-0.2-0.1-0.5-0.2-0.7c-0.1-0.2-0.2-0.4-0.3-0.7C41,0.6,39.8,0,38.6,0z"></path>	<g><path d="M74,20.5v0.7c0.1,2.3-0.4,4.6-1.4,6.7c-0.9,1.7-2.3,3.2-4,4.1c-1.8,1-3.8,1.4-5.8,1.4 c-1.6,0-3.1-0.3-4.6-0.9c-1.4-0.6-2.6-1.4-3.7-2.5c-1-1-1.9-2.3-2.5-3.6c-0.6-1.4-0.9-2.9-0.9-4.5c0-1.5,0.3-3.1,0.9-4.5 c0.6-1.4,1.5-2.6,2.5-3.6c2.3-2.2,5.3-3.3,8.4-3.3c1.8,0,3.6,0.3,5.2,1.1c1.5,0.6,2.8,1.6,3.9,2.9l-3.4,3.4 c-0.7-0.9-1.5-1.6-2.5-2.1s-2.1-0.7-3.2-0.7c-1.2,0-2.4,0.3-3.5,0.9c-1,0.6-1.8,1.4-2.4,2.4c-0.6,1.1-0.9,2.4-0.9,3.6 c0,1.3,0.3,2.5,0.8,3.6c1.1,2.1,3.3,3.4,5.7,3.4c1.1,0,2.3-0.2,3.3-0.7c0.9-0.5,1.6-1.2,2.1-2.2c0.2-0.4,0.4-0.8,0.5-1.2l-6.3-0.1 v-4.2L74,20.5z"></path><path d="M91.8,28.7V33H77V10.9h5v17.8C82,28.7,91.8,28.7,91.8,28.7z"></path><path d="M104,33.4c-1.6,0-3.2-0.3-4.6-0.9c-1.4-0.6-2.7-1.4-3.7-2.4c-1.1-1-1.9-2.3-2.5-3.7c-1.2-2.9-1.2-6.1,0-9 c1.2-2.8,3.4-4.9,6.2-6c1.5-0.6,3.1-0.9,4.6-0.9c1.6,0,3.1,0.3,4.6,0.9c1.4,0.6,2.6,1.4,3.7,2.4s1.9,2.3,2.5,3.6 c0.6,1.4,0.9,3,0.9,4.5s-0.3,3.1-0.9,4.5s-1.4,2.6-2.4,3.6c-1.1,1-2.3,1.9-3.7,2.4C107.1,33.1,105.5,33.4,104,33.4 M103.9,28.9 c1.2,0,2.4-0.3,3.5-0.9c1-0.6,1.8-1.4,2.3-2.4c0.6-1.1,0.9-2.4,0.8-3.6c0-1-0.1-1.9-0.5-2.8c-0.3-0.8-0.8-1.6-1.3-2.2 c-0.6-0.6-1.3-1.1-2.1-1.4c-0.8-0.3-1.8-0.5-2.7-0.5c-1.2,0-2.4,0.3-3.5,0.9c-1,0.6-1.8,1.4-2.3,2.4c-0.6,1.1-0.8,2.4-0.8,3.6 c0,1,0.1,1.9,0.5,2.9c0.3,0.8,0.8,1.6,1.3,2.2c0.6,0.6,1.3,1.1,2.1,1.4C102.1,28.7,103,28.9,103.9,28.9"></path><path d="M134.1,22.6c-0.5-0.6-1.2-1.1-1.9-1.4c0.5-0.3,1-0.6,1.4-1c0.9-0.9,1.4-2.2,1.3-3.5c0-1-0.3-2-0.8-2.9 s-1.3-1.6-2.3-2.1c-1.1-0.6-2.4-0.8-3.6-0.8h-9.5V33h9.5c1.4,0,2.8-0.3,4-0.9c1.1-0.5,1.9-1.3,2.6-2.3c0.6-1,0.9-2.1,0.9-3.3 C135.7,25.1,135.1,23.7,134.1,22.6 M127.3,14.7c0.7,0,1.4,0.2,1.9,0.6c0.5,0.4,0.8,1.1,0.8,1.8c0.1,0.7-0.2,1.4-0.8,1.9 c-0.6,0.4-1.2,0.6-1.9,0.6h-3.7v-4.9C123.6,14.7,127.3,14.7,127.3,14.7z M129.9,28.3c-0.6,0.6-1.4,0.9-2.2,0.8h-4.1v-5.8h4.1 c0.6,0,1.1,0.1,1.6,0.4c0.4,0.2,0.8,0.6,1.1,1s0.4,1,0.4,1.5C130.7,27,130.4,27.8,129.9,28.3"></path><path d="M154.8,28.8V33h-16V10.9h15.8v4.3h-10.8v4.5h9.9v4.2h-9.9v5h11V28.8z"></path></g></svg>